<svg width="48" height="48" viewBox="0 0 48 48" fill="none" xmlns="http://www.w3.org/2000/svg">
<path d="M34.9 45.5C32.64 45.5 30.26 44.96 27.8 43.92C25.4 42.9 22.98 41.5 20.62 39.8C18.28 38.08 16.02 36.16 13.88 34.06C11.76 31.92 9.84 29.66 8.14 27.34C6.42 24.94 5.04 22.54 4.06 20.22C3.02 17.74 2.5 15.34 2.5 13.08C2.5 11.52 2.78 10.04 3.32 8.66C3.88 7.24 4.78 5.92 6 4.78C7.54 3.26 9.3 2.5 11.18 2.5C11.96 2.5 12.76 2.68 13.44 3C14.22 3.36 14.88 3.9 15.36 4.62L20 11.16C20.42 11.74 20.74 12.3 20.96 12.86C21.22 13.46 21.36 14.06 21.36 14.64C21.36 15.4 21.14 16.14 20.72 16.84C20.42 17.38 19.96 17.96 19.38 18.54L18.02 19.96C18.04 20.02 18.06 20.06 18.08 20.1C18.32 20.52 18.8 21.24 19.72 22.32C20.7 23.44 21.62 24.46 22.54 25.4C23.72 26.56 24.7 27.48 25.62 28.24C26.76 29.2 27.5 29.68 27.94 29.9L27.9 30L29.36 28.56C29.98 27.94 30.58 27.48 31.16 27.18C32.26 26.5 33.66 26.38 35.06 26.96C35.58 27.18 36.14 27.48 36.74 27.9L43.38 32.62C44.12 33.12 44.66 33.76 44.98 34.52C45.28 35.28 45.42 35.98 45.42 36.68C45.42 37.64 45.2 38.6 44.78 39.5C44.36 40.4 43.84 41.18 43.18 41.9C42.04 43.16 40.8 44.06 39.36 44.64C37.98 45.2 36.48 45.5 34.9 45.5ZM11.18 5.5C10.08 5.5 9.06 5.98 8.08 6.94C7.16 7.8 6.52 8.74 6.12 9.76C5.7 10.8 5.5 11.9 5.5 13.08C5.5 14.94 5.94 16.96 6.82 19.04C7.72 21.16 8.98 23.36 10.58 25.56C12.18 27.76 14 29.9 16 31.92C18 33.9 20.16 35.74 22.38 37.36C24.54 38.94 26.76 40.22 28.96 41.14C32.38 42.6 35.58 42.94 38.22 41.84C39.24 41.42 40.14 40.78 40.96 39.86C41.42 39.36 41.78 38.82 42.08 38.18C42.32 37.68 42.44 37.16 42.44 36.64C42.44 36.32 42.38 36 42.22 35.64C42.16 35.52 42.04 35.3 41.66 35.04L35.02 30.32C34.62 30.04 34.26 29.84 33.92 29.7C33.48 29.52 33.3 29.34 32.62 29.76C32.22 29.96 31.86 30.26 31.46 30.66L29.94 32.16C29.16 32.92 27.96 33.1 27.04 32.76L26.5 32.52C25.68 32.08 24.72 31.4 23.66 30.5C22.7 29.68 21.66 28.72 20.4 27.48C19.42 26.48 18.44 25.42 17.42 24.24C16.48 23.14 15.8 22.2 15.38 21.42L15.14 20.82C15.02 20.36 14.98 20.1 14.98 19.82C14.98 19.1 15.24 18.46 15.74 17.96L17.24 16.4C17.64 16 17.94 15.62 18.14 15.28C18.3 15.02 18.36 14.8 18.36 14.6C18.36 14.44 18.3 14.2 18.2 13.96C18.06 13.64 17.84 13.28 17.56 12.9L12.92 6.34C12.72 6.06 12.48 5.86 12.18 5.72C11.86 5.58 11.52 5.5 11.18 5.5ZM27.9 30.02L27.58 31.38L28.12 29.98C28.02 29.96 27.94 29.98 27.9 30.02Z" fill="#EEF2F1"/>
</svg>
