<svg width="48" height="48" viewBox="0 0 48 48" fill="none" xmlns="http://www.w3.org/2000/svg">
<path d="M24 45.5C12.14 45.5 2.5 35.86 2.5 24C2.5 12.14 12.14 2.5 24 2.5C35.86 2.5 45.5 12.14 45.5 24C45.5 35.86 35.86 45.5 24 45.5ZM24 5.5C13.8 5.5 5.5 13.8 5.5 24C5.5 34.2 13.8 42.5 24 42.5C34.2 42.5 42.5 34.2 42.5 24C42.5 13.8 34.2 5.5 24 5.5Z" fill="#EEF2F1"/>
<path d="M18.34 31.16C17.96 31.16 17.58 31.02 17.28 30.72C16.7 30.14 16.7 29.18 17.28 28.6L28.6 17.28C29.18 16.7 30.14 16.7 30.72 17.28C31.3 17.86 31.3 18.82 30.72 19.4L19.4 30.72C19.12 31.02 18.72 31.16 18.34 31.16Z" fill="#EEF2F1"/>
<path d="M29.66 31.16C29.28 31.16 28.9 31.02 28.6 30.72L17.28 19.4C16.7 18.82 16.7 17.86 17.28 17.28C17.86 16.7 18.82 16.7 19.4 17.28L30.72 28.6C31.3 29.18 31.3 30.14 30.72 30.72C30.42 31.02 30.04 31.16 29.66 31.16Z" fill="#EEF2F1"/>
</svg>
