<svg width="288" height="288" viewBox="0 0 288 288" fill="none" xmlns="http://www.w3.org/2000/svg">
<path d="M144 177C139.08 177 135 172.92 135 168V108C135 103.08 139.08 99 144 99C148.92 99 153 103.08 153 108V168C153 172.92 148.92 177 144 177Z" fill="#922801"/>
<path d="M144 216C143.28 216 142.44 215.88 141.6 215.76C140.88 215.64 140.16 215.4 139.44 215.04C138.72 214.8 138 214.44 137.28 213.96C136.68 213.48 136.08 213 135.48 212.52C133.32 210.24 132 207.12 132 204C132 200.88 133.32 197.76 135.48 195.48C136.08 195 136.68 194.52 137.28 194.04C138 193.56 138.72 193.2 139.44 192.96C140.16 192.6 140.88 192.36 141.6 192.24C143.16 191.88 144.84 191.88 146.28 192.24C147.12 192.36 147.84 192.6 148.56 192.96C149.28 193.2 150 193.56 150.72 194.04C151.32 194.52 151.92 195 152.52 195.48C154.68 197.76 156 200.88 156 204C156 207.12 154.68 210.24 152.52 212.52C151.92 213 151.32 213.48 150.72 213.96C150 214.44 149.28 214.8 148.56 215.04C147.84 215.4 147.12 215.64 146.28 215.76C145.56 215.88 144.72 216 144 216Z" fill="#922801"/>
<path d="M216.72 265.92H71.2797C47.8797 265.92 29.9997 257.4 20.8797 242.04C11.8797 226.68 13.0797 206.88 24.4797 186.36L97.1997 55.56C109.2 33.96 125.76 22.08 144 22.08C162.24 22.08 178.8 33.96 190.8 55.56L263.52 186.48C274.92 207 276.24 226.68 267.12 242.16C258 257.4 240.12 265.92 216.72 265.92ZM144 40.08C132.72 40.08 121.68 48.72 112.92 64.32L40.3197 195.24C32.1597 209.88 30.8397 223.32 36.4797 233.04C42.1197 242.76 54.5997 248.04 71.3997 248.04H216.84C233.64 248.04 246 242.76 251.76 233.04C257.52 223.32 256.08 210 247.92 195.24L175.08 64.32C166.32 48.72 155.28 40.08 144 40.08Z" fill="#922801"/>
</svg>
