<svg width="24" height="24" viewBox="0 0 24 24" fill="none" xmlns="http://www.w3.org/2000/svg">
<rect width="24" height="24" rx="12" fill="#E4E4E4"/>
<path d="M14.8 6.39999H16.8C17.0208 6.39999 17.2 6.22079 17.2 5.99999V3.30519C17.2 3.09559 17.0388 2.92119 16.83 2.90639C16.1936 2.86119 14.9504 2.79999 14.0564 2.79999C11.6 2.79999 10 4.27199 10 6.94719V9.59999H7.20005C6.97925 9.59999 6.80005 9.77919 6.80005 9.99999V12.8C6.80005 13.0208 6.97925 13.2 7.20005 13.2H10V20.8C10 21.0208 10.1792 21.2 10.4 21.2H13.2C13.4208 21.2 13.6 21.0208 13.6 20.8V13.2H16.4888C16.6928 13.2 16.864 13.0468 16.8864 12.844L17.1976 10.044C17.224 9.80719 17.0384 9.59999 16.8 9.59999H13.6V7.59999C13.6 6.93719 14.1372 6.39999 14.8 6.39999Z" fill="#003A2B"/>
</svg>
