<svg width="72" height="72" viewBox="0 0 72 72" fill="none" xmlns="http://www.w3.org/2000/svg">
<rect width="72" height="72" rx="36" fill="#E4E4E4"/>
<path d="M44.3999 19.1999H50.3999C51.0623 19.1999 51.5999 18.6623 51.5999 17.9999V9.9155C51.5999 9.2867 51.1163 8.7635 50.4899 8.7191C48.5807 8.5835 44.8511 8.3999 42.1691 8.3999C34.7999 8.3999 29.9999 12.8159 29.9999 20.8415V28.7999H21.5999C20.9375 28.7999 20.3999 29.3375 20.3999 29.9999V38.3999C20.3999 39.0623 20.9375 39.5999 21.5999 39.5999H29.9999V62.3999C29.9999 63.0623 30.5375 63.5999 31.1999 63.5999H39.5999C40.2623 63.5999 40.7999 63.0623 40.7999 62.3999V39.5999H49.4663C50.0783 39.5999 50.5919 39.1403 50.6591 38.5319L51.5927 30.1319C51.6719 29.4215 51.1151 28.7999 50.3999 28.7999H40.7999V22.7999C40.7999 20.8115 42.4115 19.1999 44.3999 19.1999Z" fill="#003A2B"/>
</svg>
