<svg width="24" height="25" viewBox="0 0 24 25" fill="none" xmlns="http://www.w3.org/2000/svg">
<rect width="24" height="25" rx="12" fill="#E4E4E4"/>
<path d="M11.9998 4.45166C14.264 4.45166 14.5465 4.45999 15.4348 4.50166C16.3223 4.54333 16.9265 4.68249 17.4582 4.88916C18.0082 5.10083 18.4715 5.38749 18.9348 5.84999C19.3586 6.26657 19.6865 6.77048 19.8957 7.32666C20.1015 7.85749 20.2415 8.46249 20.2832 9.34999C20.3223 10.2383 20.3332 10.5208 20.3332 12.785C20.3332 15.0492 20.3248 15.3317 20.2832 16.22C20.2415 17.1075 20.1015 17.7117 19.8957 18.2433C19.6871 18.7998 19.3591 19.3038 18.9348 19.72C18.5181 20.1436 18.0143 20.4715 17.4582 20.6808C16.9273 20.8867 16.3223 21.0267 15.4348 21.0683C14.5465 21.1075 14.264 21.1183 11.9998 21.1183C9.73567 21.1183 9.45317 21.11 8.56484 21.0683C7.67734 21.0267 7.07317 20.8867 6.5415 20.6808C5.98511 20.4721 5.48111 20.1441 5.06484 19.72C4.64101 19.3035 4.31311 18.7996 4.104 18.2433C3.89734 17.7125 3.75817 17.1075 3.7165 16.22C3.67734 15.3317 3.6665 15.0492 3.6665 12.785C3.6665 10.5208 3.67484 10.2383 3.7165 9.34999C3.75817 8.46166 3.89734 7.85833 4.104 7.32666C4.31253 6.77014 4.64051 6.26609 5.06484 5.84999C5.48123 5.42602 5.98519 5.0981 6.5415 4.88916C7.07317 4.68249 7.6765 4.54333 8.56484 4.50166C9.45317 4.46249 9.73567 4.45166 11.9998 4.45166ZM11.9998 8.61833C10.8948 8.61833 9.83496 9.05731 9.05356 9.83872C8.27216 10.6201 7.83317 11.6799 7.83317 12.785C7.83317 13.8901 8.27216 14.9499 9.05356 15.7313C9.83496 16.5127 10.8948 16.9517 11.9998 16.9517C13.1049 16.9517 14.1647 16.5127 14.9461 15.7313C15.7275 14.9499 16.1665 13.8901 16.1665 12.785C16.1665 11.6799 15.7275 10.6201 14.9461 9.83872C14.1647 9.05731 13.1049 8.61833 11.9998 8.61833ZM17.4165 8.40999C17.4165 8.13373 17.3068 7.86877 17.1114 7.67342C16.9161 7.47807 16.6511 7.36833 16.3748 7.36833C16.0986 7.36833 15.8336 7.47807 15.6383 7.67342C15.4429 7.86877 15.3332 8.13373 15.3332 8.40999C15.3332 8.68626 15.4429 8.95121 15.6383 9.14656C15.8336 9.34191 16.0986 9.45166 16.3748 9.45166C16.6511 9.45166 16.9161 9.34191 17.1114 9.14656C17.3068 8.95121 17.4165 8.68626 17.4165 8.40999ZM11.9998 10.285C12.6629 10.285 13.2988 10.5484 13.7676 11.0172C14.2364 11.4861 14.4998 12.122 14.4998 12.785C14.4998 13.448 14.2364 14.0839 13.7676 14.5528C13.2988 15.0216 12.6629 15.285 11.9998 15.285C11.3368 15.285 10.7009 15.0216 10.2321 14.5528C9.76323 14.0839 9.49984 13.448 9.49984 12.785C9.49984 12.122 9.76323 11.4861 10.2321 11.0172C10.7009 10.5484 11.3368 10.285 11.9998 10.285Z" fill="#003A2B"/>
</svg>
