<svg width="72" height="75" viewBox="0 0 72 75" fill="none" xmlns="http://www.w3.org/2000/svg">
<rect width="72" height="75" rx="36" fill="#E4E4E4"/>
<path d="M35.9995 13.355C42.792 13.355 43.6395 13.38 46.3044 13.505C48.9669 13.63 50.7795 14.0475 52.3746 14.6675C54.0246 15.3025 55.4145 16.1625 56.8044 17.55C58.0758 18.7997 59.0595 20.3114 59.6871 21.98C60.3045 23.5725 60.7245 25.3875 60.8496 28.05C60.9669 30.715 60.9996 31.5625 60.9996 38.355C60.9996 45.1476 60.9744 45.9951 60.8496 48.66C60.7245 51.3225 60.3045 53.1351 59.6871 54.7299C59.0613 56.3994 58.0773 57.9114 56.8044 59.16C55.5543 60.4308 54.0429 61.4145 52.3746 62.0424C50.7819 62.6601 48.9669 63.0801 46.3044 63.2049C43.6395 63.3225 42.792 63.3549 35.9995 63.3549C29.207 63.3549 28.3595 63.33 25.6945 63.2049C23.032 63.0801 21.2195 62.6601 19.6245 62.0424C17.9553 61.4163 16.4433 60.4323 15.1945 59.16C13.923 57.9105 12.9393 56.3988 12.312 54.7299C11.692 53.1375 11.2745 51.3225 11.1495 48.66C11.032 45.9951 10.9995 45.1476 10.9995 38.355C10.9995 31.5625 11.0245 30.715 11.1495 28.05C11.2745 25.385 11.692 23.575 12.312 21.98C12.9376 20.3104 13.9215 18.7983 15.1945 17.55C16.4437 16.2781 17.9556 15.2943 19.6245 14.6675C21.2195 14.0475 23.0295 13.63 25.6945 13.505C28.3595 13.3875 29.207 13.355 35.9995 13.355ZM35.9995 25.855C32.6843 25.855 29.5049 27.1719 27.1607 29.5162C24.8165 31.8604 23.4995 35.0398 23.4995 38.355C23.4995 41.6703 24.8165 44.8497 27.1607 47.1939C29.5049 49.5381 32.6843 50.8551 35.9995 50.8551C39.3147 50.8551 42.4941 49.5381 44.8383 47.1939C47.1825 44.8497 48.4995 41.6703 48.4995 38.355C48.4995 35.0398 47.1825 31.8604 44.8383 29.5162C42.4941 27.1719 39.3147 25.855 35.9995 25.855ZM52.2495 25.23C52.2495 24.4012 51.9204 23.6063 51.3342 23.0203C50.7483 22.4342 49.9533 22.105 49.1244 22.105C48.2958 22.105 47.5008 22.4342 46.9149 23.0203C46.3287 23.6063 45.9996 24.4012 45.9996 25.23C45.9996 26.0588 46.3287 26.8536 46.9149 27.4397C47.5008 28.0257 48.2958 28.355 49.1244 28.355C49.9533 28.355 50.7483 28.0257 51.3342 27.4397C51.9204 26.8536 52.2495 26.0588 52.2495 25.23ZM35.9995 30.855C37.9887 30.855 39.8964 31.6452 41.3028 33.0517C42.7092 34.4582 43.4994 36.366 43.4994 38.355C43.4994 40.344 42.7092 42.2517 41.3028 43.6584C39.8964 45.0648 37.9887 45.855 35.9995 45.855C34.0104 45.855 32.1027 45.0648 30.6962 43.6584C29.2897 42.2517 28.4995 40.344 28.4995 38.355C28.4995 36.366 29.2897 34.4582 30.6962 33.0517C32.1027 31.6452 34.0104 30.855 35.9995 30.855Z" fill="#003A2B"/>
</svg>
