<svg width="44" height="44" viewBox="0 0 44 44" fill="none" xmlns="http://www.w3.org/2000/svg">
<path d="M31 17.75H13C12.59 17.75 12.25 17.41 12.25 17C12.25 16.59 12.59 16.25 13 16.25H31C31.41 16.25 31.75 16.59 31.75 17C31.75 17.41 31.41 17.75 31 17.75Z" fill="#003A2B"/>
<path d="M31 22.75H13C12.59 22.75 12.25 22.41 12.25 22C12.25 21.59 12.59 21.25 13 21.25H31C31.41 21.25 31.75 21.59 31.75 22C31.75 22.41 31.41 22.75 31 22.75Z" fill="#003A2B"/>
<path d="M31 27.75H13C12.59 27.75 12.25 27.41 12.25 27C12.25 26.59 12.59 26.25 13 26.25H31C31.41 26.25 31.75 26.59 31.75 27C31.75 27.41 31.41 27.75 31 27.75Z" fill="#003A2B"/>
<rect x="0.5" y="0.5" width="43" height="43" rx="21.5" stroke="#003A2B"/>
</svg>
