<svg width="72" height="72" viewBox="0 0 72 72" fill="none" xmlns="http://www.w3.org/2000/svg">
<path d="M24.27 34.8899H10.2C10.44 20.8799 13.2 18.5699 21.81 13.4699C22.8 12.8699 23.13 11.6099 22.53 10.5899C21.96 9.59991 20.67 9.26991 19.68 9.86991C9.54 15.8699 6 19.5299 6 36.9599V53.1299C6 58.2599 10.17 62.3999 15.27 62.3999H24.27C29.55 62.3999 33.54 58.4099 33.54 53.1299V44.1299C33.54 38.8799 29.55 34.8899 24.27 34.8899Z" fill="#444444"/>
<path d="M56.73 34.8899H42.66C42.9 20.8799 45.66 18.5699 54.27 13.4699C55.26 12.8699 55.59 11.6099 54.99 10.5899C54.39 9.59991 53.13 9.26991 52.11 9.86991C41.97 15.8699 38.43 19.5299 38.43 36.9899V53.1599C38.43 58.2899 42.6 62.4299 47.7 62.4299H56.7C61.98 62.4299 65.97 58.4399 65.97 53.1599V44.1599C66 38.8799 62.01 34.8899 56.73 34.8899Z" fill="#444444"/>
</svg>
