<svg width="48" height="48" viewBox="0 0 48 48" fill="none" xmlns="http://www.w3.org/2000/svg">
<path d="M34 42.5H14C6.7 42.5 2.5 38.3 2.5 31V17C2.5 9.7 6.7 5.5 14 5.5H34C41.3 5.5 45.5 9.7 45.5 17V31C45.5 38.3 41.3 42.5 34 42.5ZM14 8.5C8.28 8.5 5.5 11.28 5.5 17V31C5.5 36.72 8.28 39.5 14 39.5H34C39.72 39.5 42.5 36.72 42.5 31V17C42.5 11.28 39.72 8.5 34 8.5H14Z" fill="#EEF2F1"/>
<path d="M23.9996 25.7399C22.3196 25.7399 20.6196 25.2199 19.3196 24.1599L13.0596 19.1599C12.4196 18.6399 12.2996 17.6999 12.8196 17.0599C13.3396 16.4199 14.2796 16.2999 14.9196 16.8199L21.1795 21.8199C22.6995 23.0399 25.2795 23.0399 26.7995 21.8199L33.0596 16.8199C33.6996 16.2999 34.6596 16.3999 35.1596 17.0599C35.6796 17.6999 35.5796 18.6599 34.9196 19.1599L28.6596 24.1599C27.3796 25.2199 25.6796 25.7399 23.9996 25.7399Z" fill="#EEF2F1"/>
</svg>
