<svg width="288" height="288" viewBox="0 0 288 288" fill="none" xmlns="http://www.w3.org/2000/svg">
<path d="M144 273C72.84 273 15 215.16 15 144C15 72.84 72.84 15 144 15C215.16 15 273 72.84 273 144C273 215.16 215.16 273 144 273ZM144 33C82.8 33 33 82.8 33 144C33 205.2 82.8 255 144 255C205.2 255 255 205.2 255 144C255 82.8 205.2 33 144 33Z" fill="#01754C"/>
<path d="M126.959 186.96C124.559 186.96 122.279 186 120.599 184.32L86.6393 150.36C83.1593 146.88 83.1593 141.12 86.6393 137.64C90.1193 134.16 95.8793 134.16 99.3593 137.64L126.959 165.24L188.639 103.56C192.119 100.08 197.879 100.08 201.359 103.56C204.839 107.04 204.839 112.8 201.359 116.28L133.319 184.32C131.639 186 129.359 186.96 126.959 186.96Z" fill="#01754C"/>
</svg>
