<svg width="240" height="240" viewBox="0 0 240 240" fill="none" xmlns="http://www.w3.org/2000/svg">
<g clip-path="url(#clip0_328_1494)">
<rect width="240" height="240" rx="120" fill="#B5CCAA"/>
<path d="M47.1412 282.657C68.5065 290.974 90.2929 298.125 112.134 304.998C140.328 313.816 168.799 322.209 196.81 331.472C216.651 265.146 233.09 185.253 232.96 165.801C232.669 123.622 167.874 118.919 167.874 118.919C167.874 118.919 79.793 126.48 79.1397 129.811C78.5589 132.772 24.9121 246.856 15.9165 270.155C26.3495 274.359 36.6718 278.638 47.1412 282.657Z" fill="#BFD4DF"/>
<path d="M25.4919 275.75C22.1123 283.496 20.2684 288.389 20.6418 288.461C21.0152 288.534 26.0071 291.223 34.0471 295.649C14.6878 300.386 -14.3482 306.011 -57.6348 311.637C-162.644 325.417 -182.491 325.284 -165.627 453.742C-160.109 495.777 -161.274 523.623 -160.491 540.676C-138.609 541.299 -105.159 542.738 -83.386 543.913C-71.5661 431.628 -86.5295 409.337 -86.5295 409.337C-86.5295 409.337 -86.0206 406.285 11.4158 422.353C147.51 444.882 162.465 452.562 183.331 404.099C193.246 381.009 203.404 349.372 212.365 316.929C150.006 303.381 88.1242 287.919 25.4919 275.75Z" fill="black"/>
<path d="M103.571 317.51C103.571 317.51 121.291 311.786 19.0777 283.933C-111.682 248.441 -136.731 246.634 -182.77 370.56C-197.097 409.012 -206.137 432.074 -212.355 447.761C-193.401 459.266 -164.631 479.452 -145.38 490.442C-86.9836 400.984 -96.5918 380.507 -91.8881 364.144C-91.8881 364.144 -91.8881 364.144 -63.0122 382.824C-49.0168 378.763 -34.5503 375.748 -20.6096 371.963C1.23304 365.989 23.1325 360.217 45.0321 354.445C67.4533 348.488 89.8927 342.439 112.294 336.096L103.571 317.51Z" fill="black"/>
<path d="M10.0686 204.265C-2.05909 231.766 -4.56429 238.456 -4.56429 238.456C-4.56429 238.456 -84.0699 230.695 -115.185 245.736C-123.176 248.962 -136.77 262.636 -137.322 268.37C-137.48 269.659 -138.057 272.564 -134.721 272.052C-134.246 276.565 -132.603 278.658 -131.136 278.176C-128.86 283.493 -122.432 282.707 -121.481 279.4C-120.271 283.672 -115.636 286.978 -103.22 272.333C-102.599 272.166 -87.614 272.212 -85.782 272.363C-78.14 276.32 -85.9284 279.019 -91.3898 282.338C-93.623 283.713 -94.8713 287.53 -92.8278 288.096C-84.0105 290.577 -66.8563 280.199 -60.0983 276.273L44.9871 288.96L67.9797 215.651C48.5303 212.425 29.1753 209.216 10.0686 204.265Z" fill="#CD8F7E"/>
<path d="M164.73 119.092L131.514 129.543L85.7725 143.959L64.7999 211.454C45.8872 206.549 27.0658 201.184 7.97062 197.197C12.2381 187.433 17.7252 174.948 24.8764 158.969C48.1036 106.986 64.1234 107.896 126.837 114.993C137.931 116.284 150.462 117.663 164.73 119.092Z" fill="#BFD4DF"/>
<path d="M7.05794 241.965L-2.00583 238.268C-2.7358 237.956 -3.23115 238.985 -2.50118 239.296C0.514299 240.559 3.52974 241.821 6.5626 242.994C7.29257 243.305 7.78791 242.277 7.05794 241.965Z" fill="white"/>
<path d="M82.2298 140.289C79.9044 150.357 77.5637 160.522 75.2384 170.591C75.0283 171.344 76.1624 171.565 76.2852 170.795C78.6106 160.726 80.9513 150.561 83.2766 140.493C83.4867 139.739 82.4398 139.535 82.2298 140.289Z" fill="white"/>
<path d="M66.7537 214.873L38.8536 209.307C37.2778 208.993 35.9765 207.773 35.711 206.183L24.7438 153.173C24.1402 150.362 26.6499 147.885 29.4306 148.439L57.3307 154.005C58.9064 154.319 60.2078 155.54 60.4733 157.13L71.4405 210.14C72.0441 212.95 69.5344 215.428 66.7537 214.873Z" fill="black"/>
<path d="M54.3594 155.802C51.4683 155.353 48.5614 154.997 45.6703 154.548C44.8994 154.429 44.7093 155.53 45.4803 155.649C48.3714 156.098 51.2783 156.454 54.1694 156.903C54.9403 157.022 55.1304 155.921 54.3594 155.802Z" fill="white"/>
<path d="M50.7402 162.601C48.7358 162.009 46.3478 162.878 45.4843 164.818C45.4661 164.911 45.4479 165.003 45.4298 165.095C45.3188 165.169 45.3006 165.262 45.2825 165.354C44.8464 167.571 46.3383 169.789 48.5464 170.324C50.6618 170.841 52.5841 169.4 53.1875 167.312C53.6618 165.39 52.7265 163.284 50.7402 162.601ZM48.9319 169.345C47.2621 169.012 46.1432 167.35 46.4703 165.687C46.4884 165.594 46.4884 165.594 46.5066 165.502L46.6175 165.428C47.9774 162.434 52.8939 163.413 52.2034 166.924C51.7272 168.365 50.5088 169.659 48.9319 169.345Z" fill="white"/>
<path d="M63.4832 190.504C61.7991 180.509 60.1323 170.42 58.359 160.406C58.2132 159.687 57.0905 159.745 57.2363 160.464L62.3605 190.562C62.4889 191.376 63.6116 191.318 63.4832 190.504Z" fill="white"/>
<path d="M50.8143 176.475C51.6337 176.638 52.4282 176.109 52.5887 175.292C52.7493 174.476 52.2151 173.681 51.3957 173.518C50.5763 173.355 49.782 173.884 49.6214 174.701C49.4609 175.517 49.9949 176.312 50.8143 176.475Z" fill="white"/>
<path d="M223.156 231.166C212.396 226.696 201.73 222.245 191.119 217.52C184.461 214.575 177.879 211.738 170.964 209.592L160.794 235.688C160.794 235.688 98.9918 211.747 89.9428 209.013C89.7555 200.586 88.0598 189.896 85 182.628C82.0568 175.759 77.0127 172.079 74.6676 171.073C69.9773 169.062 69.894 178.853 74.6731 182.389C75.1393 183.985 71.5036 196.88 63.5828 193.886C61.8177 192.424 60.0346 191.052 58.2515 189.681C56.3518 187.91 44.6219 182.41 37.1688 172.621C35.4397 170.977 33.4471 167.209 31.0297 166.567C27.8756 165.693 25.3306 167.667 25.6969 170.753C25.7815 171.806 32.4576 181.072 33.1445 182.05C33.0432 185.519 32.1925 187.34 33.0126 190.605C32.4936 193.713 32.5005 196.637 32.9973 199.559C30.1886 212.233 38.4507 221.891 48.8762 229.032C52.0554 232.739 56.1059 236.987 61.028 241.776C129.424 308.44 174.615 328.795 200.627 327.922C218.67 327.251 238.728 281.418 246.435 243.074C246.561 242.438 246.688 241.802 246.814 241.165C238.795 237.681 231.022 234.432 223.156 231.166Z" fill="#CD8F7E"/>
<path d="M168.628 206.32L194.801 137.321L180.672 124.257L169.059 113.532C174.686 114.181 181.051 114.979 187.675 115.925C219.503 120.395 257.45 129.374 254.183 160.254C252.459 176.4 249.267 207.391 243.323 237.25C218.138 227.751 193.227 217.341 168.628 206.32Z" fill="#BFD4DF"/>
<path d="M170.479 242.741C168.169 240.194 165.859 237.647 163.55 235.1C163.08 234.532 162.319 235.433 162.789 236.001C165.099 238.548 167.408 241.095 169.718 243.642C170.206 244.118 170.967 243.217 170.479 242.741Z" fill="white"/>
<path d="M42.1024 196.055C39.0402 193.294 36.072 190.551 33.0099 187.79C32.4242 187.3 31.6788 188.105 32.2463 188.686C35.3085 191.447 38.2767 194.19 41.3389 196.951C41.8306 197.423 42.6881 196.545 42.1024 196.055Z" fill="#D24A43"/>
<path d="M37.98 201.937C35.1361 200.142 33.0161 197.628 31.7885 194.525C31.5425 193.809 30.3882 194.252 30.6524 194.876C32.0303 198.2 34.394 200.952 37.4998 202.894C38.192 203.315 38.6722 202.359 37.98 201.937Z" fill="#D24A43"/>
<path d="M35.5707 210.558C34.0146 208.63 32.4585 206.701 30.8842 204.865C30.4155 204.296 29.4122 204.959 29.8809 205.529C31.437 207.457 32.9931 209.385 34.5674 211.221C35.036 211.79 36.0394 211.127 35.5707 210.558Z" fill="#D24A43"/>
<path d="M56.511 242.418C44.6155 234.939 35.4625 223.891 30.4768 210.887C30.2309 210.17 29.0952 210.521 29.3411 211.238C34.4588 224.554 43.7621 235.823 55.9193 243.448C56.6295 243.778 57.1278 242.729 56.511 242.418Z" fill="#D24A43"/>
<path d="M179.645 160.272C175.808 174.492 172.044 188.825 168.207 203.045C167.995 203.797 169.041 204.007 169.253 203.255C173.089 189.035 176.854 174.702 180.69 160.481C180.989 159.747 179.857 159.52 179.645 160.272Z" fill="white"/>
<path d="M164.97 114.651C150.452 113.332 137.604 112.036 126.409 110.852C126.201 115.937 127.984 120.917 131.311 125.057C131.716 125.503 132.026 125.932 132.431 126.377C137.467 131.851 144.796 134.666 152.464 134.747C162.2 134.829 170.548 130.935 177.138 124.953C179.777 122.542 182.184 119.81 184.245 116.829C177.324 115.951 170.862 115.249 164.97 114.651Z" fill="#CD8F7E"/>
<path d="M176.825 121.013L133.281 125.523L130.298 113.786L126.414 98.7263L119.773 72.6423L151.827 66.3337C152.656 69.5465 176.825 121.013 176.825 121.013Z" fill="#CD8F7E"/>
<path d="M128.98 115.399L129.127 116.019C135.103 111.722 139.231 105.229 141.649 97.6429C144.786 87.5068 143.406 78.226 141.859 68.4187L119.089 73.1372L125.385 99.9434L128.98 115.399Z" fill="black"/>
<path d="M151.76 40.8394C142.28 27.7345 104.045 34.0753 103.977 50.1398C103.93 62.1653 104.113 95.4287 109.939 101.514C121.679 113.704 139.721 105.708 146.979 92.8704C154.345 79.9623 161.26 53.8525 151.76 40.8394Z" fill="#CD8F7E"/>
<path d="M154.27 45.3544C155.348 44.0022 155.85 42.1617 155.755 39.9214C155.403 34.852 151.153 32.4076 147.086 32.6847C145.313 29.6376 141.246 27.6935 137.632 27.693C135.965 27.7215 134.313 28.1234 132.904 28.7599C132.066 28.1255 131.096 27.6491 130.087 27.3497C127.77 26.7822 125.741 27.5693 123.969 28.9645L123.949 29.0531C120.471 28.4327 116.927 29.0018 114.657 31.7756C114.373 32.18 114.089 32.5845 113.879 33.0967C107.969 29.757 100.249 27.9895 97.6652 34.8632C97.1284 36.4189 97.0431 37.697 97.3708 38.8747C96.2378 40.0306 95.327 41.5096 94.8993 43.4578C94.1837 46.2725 97.3085 48.9488 100.256 47.9799C100.895 47.7406 101.534 47.5013 102.153 47.3506C102.707 48.3895 103.486 49.2895 104.678 50.0891C109.521 53.3952 114.369 51.335 116.891 47.4101C121.227 48.5763 125.877 47.8637 129.697 45.5928C130.317 47.6632 132.082 49.4131 134.887 49.9879C136.289 50.2754 137.656 50.2779 138.801 49.9573C140.567 53.9284 143.696 58.3639 149.278 58.3048C151.918 58.2908 152.514 68.0372 154.964 68.4468C156.433 60.4193 156.707 52.0541 154.27 45.3544Z" fill="black"/>
<path d="M120.019 75.9757C118.777 76.2788 117.422 76.6514 116.089 76.4754C114.568 76.2617 112.903 74.9132 113.739 73.3304C114.081 72.6619 113.126 72.1012 112.784 72.7697C111.967 74.2642 112.465 76.023 114.038 76.8924C115.929 78.1021 118.3 77.5652 120.276 77.0411C121.01 76.8201 120.753 75.7547 120.019 75.9757Z" fill="black"/>
<path d="M113.367 65.6479C113.909 70.2388 110.363 74.4317 105.38 74.1245C100.396 73.8174 97.3033 69.3403 98.3045 64.796C98.4616 64.0831 97.3674 63.7586 97.2104 64.4715C96.0521 69.7286 99.5648 74.9472 105.33 75.233C111.095 75.5189 115.169 70.6916 114.486 65.4182C114.364 64.6465 113.245 64.8763 113.367 65.6479Z" fill="#BCD7FD"/>
<path d="M136.798 61.5241C138.037 66.0043 135.178 70.635 130.241 71.0738C125.305 71.5125 121.558 67.4306 121.896 62.8207C121.962 62.0855 120.833 61.9368 120.787 62.5826C120.476 67.9476 124.679 72.5957 130.394 72.1367C136.109 71.6778 139.331 66.2821 137.972 61.027C137.721 60.4111 136.659 60.8387 136.798 61.5241Z" fill="#BCD7FD"/>
<path d="M121.207 64.8176C118.772 65.1662 116.338 65.5147 113.903 65.8633C113.186 65.9979 113.447 67.0577 114.165 66.9231C116.599 66.5745 119.034 66.226 121.469 65.8774C121.356 65.4887 121.319 65.2063 121.207 64.8176Z" fill="#BCD7FD"/>
<path d="M127.77 61.9578C127.821 63.0417 127.959 64.1468 128.028 65.1379C128.166 66.243 129.703 65.9334 129.652 64.8495C129.602 63.7657 129.464 62.6606 129.394 61.6694C129.276 60.4716 127.632 60.8527 127.77 61.9578Z" fill="black"/>
<path d="M105.424 63.5745C105.475 64.658 105.613 65.7628 105.682 66.7536C105.82 67.8583 107.358 67.5489 107.307 66.4653C107.257 65.3818 107.119 64.2771 107.049 63.2863C106.911 62.1815 105.286 62.4698 105.424 63.5745Z" fill="black"/>
<path d="M109.017 56.5775C107.736 56.6 106.454 56.6224 105.192 56.5568C104.608 56.5333 104.059 57.2514 104.151 57.7288C104.206 58.3823 104.827 58.6885 105.411 58.712C106.692 58.6895 107.974 58.667 109.236 58.7326C109.82 58.7561 110.369 58.0381 110.276 57.5607C110.222 56.9072 109.601 56.601 109.017 56.5775Z" fill="black"/>
<path d="M126.505 52.5603C125.401 52.7028 124.184 52.9148 123.079 53.0573C121.563 53.3001 122.067 55.4447 123.583 55.2019C124.687 55.0594 125.904 54.8474 127.009 54.7049C128.412 54.5315 127.908 52.3869 126.505 52.5603Z" fill="black"/>
<path d="M134.88 89.3454C133.823 91.5858 131.779 93.1234 129.321 93.516C128.629 93.6442 128.662 94.7974 129.355 94.6693C132.195 94.2683 134.569 92.5199 135.886 89.9572C136.225 89.2711 135.199 88.7502 134.88 89.3454Z" fill="black"/>
<path d="M156.102 55.7001C150.067 57.3388 144.031 58.9774 137.996 60.616C137.263 60.8366 137.518 61.9036 138.252 61.683C144.287 60.0444 150.322 58.4058 156.358 56.7672C157.185 56.5656 156.835 55.4795 156.102 55.7001Z" fill="#BCD7FD"/>
<path d="M167.433 59.3807C164.955 54.2193 156.407 52.1577 151.126 57.7345C151.684 63.8891 152.043 70.0933 152.401 76.2976C155.729 77.5413 162.296 76.9474 165.711 73.4283C169.565 69.6278 170.103 64.9687 167.433 59.3807Z" fill="#CD8F7E"/>
<path d="M158.825 63.1579C157.617 65.0118 156.323 66.8444 155.096 68.7912C154.7 69.3781 155.583 69.9838 156.066 69.4181C156.172 69.3464 156.211 69.1604 156.317 69.0887C156.336 68.9958 156.336 68.9958 156.356 68.9028C157.525 67.2349 158.606 65.5457 159.794 63.7848C160.103 63.1766 159.221 62.571 158.825 63.1579Z" fill="black"/>
</g>
<defs>
<clipPath id="clip0_328_1494">
<rect width="240" height="240" rx="120" fill="white"/>
</clipPath>
</defs>
</svg>
