<svg width="240" height="240" viewBox="0 0 240 240" fill="none" xmlns="http://www.w3.org/2000/svg">
<g clip-path="url(#clip0_328_1553)">
<rect width="240" height="240" rx="120" fill="#779FA7"/>
<path d="M160.381 160.064C155.959 180.986 151.106 203.31 142.586 230.595C141.939 232.752 141.184 235.017 140.429 237.281C138.38 243.536 136.115 250.115 133.743 256.909C122.311 288.508 110.448 314.175 101.174 332.509C72.2709 323.989 43.3683 315.469 14.4657 306.949C15.0049 275.566 18.5638 230.056 32.7994 177.319C38.0839 158.015 45.8488 129.004 56.7412 102.043C57.4961 100.21 58.251 98.484 59.0059 96.6507C73.1337 63.1107 92.0067 34.1002 116.488 32.3747C137.194 30.9727 156.714 49.5222 165.449 65.0519C169.655 72.4933 175.803 87.0524 160.381 160.064Z" fill="#19233D"/>
<path opacity="0.35" d="M142.587 230.595C141.94 232.751 141.185 235.016 140.43 237.281C138.381 243.536 136.116 250.115 133.744 256.909C122.312 288.508 110.449 314.175 101.174 332.509C72.2716 323.989 43.369 315.469 14.4664 306.949C15.0057 275.566 18.5646 230.055 32.8002 177.319C38.0846 158.014 45.8495 129.004 56.7419 102.043C57.4968 100.209 58.2517 98.4838 59.0067 96.6504L142.587 230.595Z" fill="url(#paint0_linear_328_1553)"/>
<path d="M185.507 184.652L176.88 218.408C176.88 218.516 176.772 218.623 176.772 218.623C173.429 227.575 170.193 238.791 168.252 251.948C168.144 253.026 167.928 254.105 167.821 255.183C167.066 261.546 166.634 267.693 166.526 273.517C166.526 274.811 166.526 276.213 166.526 277.507C166.634 286.566 167.497 294.655 168.575 301.772C169.115 305.116 169.762 308.243 170.301 311.047C170.301 311.155 170.301 311.155 170.301 311.263L170.193 311.371C169.33 312.341 166.85 315.037 162.86 318.057C161.458 319.136 159.84 320.322 158.007 321.508C150.026 326.685 138.379 331.753 124.035 330.999C110.447 330.351 99.9857 324.744 93.7307 320.322C91.0345 318.381 88.9855 316.655 87.907 315.577C88.4462 313.528 88.9855 311.586 89.4168 309.753H89.309C90.1718 306.194 90.9267 302.851 91.4659 299.616C92.113 295.733 92.6522 292.066 92.8679 288.723C92.9758 287.105 93.0836 285.488 93.1914 283.87C93.1914 283.439 93.1914 283.115 93.1914 282.684C93.2993 281.066 93.2993 279.556 93.1914 278.046C93.0836 269.527 91.8973 263.056 90.711 258.311C88.7698 250.546 83.8089 236.202 78.848 222.937C78.848 222.829 78.7401 222.722 78.7401 222.614C78.6323 222.29 78.5245 221.967 78.3088 221.535C75.8283 215.496 74.1028 210.643 73.0243 207.515C69.3576 196.947 65.2595 185.731 66.0144 184.76C69.4654 182.172 72.5929 179.907 75.3969 177.966C75.3969 177.966 75.3969 177.966 75.5048 177.966C76.9068 176.995 78.2009 176.132 79.4951 175.377C82.5147 173.436 85.5344 171.603 88.0149 170.093C88.9855 169.554 89.8482 169.015 90.6031 168.475C91.3581 168.044 92.113 167.613 92.7601 167.181C95.1327 165.779 100.956 161.573 105.594 157.259L106.349 156.504C108.613 154.348 110.555 152.191 111.525 150.465C114.976 144.426 116.378 138.171 116.702 132.239C116.917 129.22 116.81 126.308 116.486 123.504C115.731 116.17 113.682 110.131 112.496 106.896C123.172 108.297 133.957 109.699 144.634 111.101C144.31 115.092 144.202 119.513 144.418 124.151C144.634 128.249 145.065 132.563 145.928 136.877C146.791 141.083 147.977 145.396 149.702 149.71C149.702 149.818 149.81 149.926 149.81 149.926C150.673 152.083 151.644 154.24 152.83 156.289C153.261 157.044 153.693 157.906 154.232 158.661C154.448 158.985 154.556 159.308 154.771 159.632C155.526 160.71 156.281 161.789 157.036 162.867C160.379 167.397 163.507 169.662 167.173 171.819C167.389 171.926 167.713 172.142 167.928 172.25C168.575 172.681 169.223 173.005 169.87 173.436C170.193 173.652 170.409 173.76 170.732 173.975C175.046 176.132 179.576 179.044 185.507 184.652Z" fill="#E6A67F"/>
<path opacity="0.13" d="M150.133 149.709C146.035 149.386 140.643 148.415 135.035 145.935C125.545 141.837 119.829 135.69 117.133 132.346C117.348 129.327 117.24 126.415 116.917 123.611L144.957 124.258C144.633 126.954 144.525 131.591 146.467 136.984C147.221 141.19 148.408 145.504 150.133 149.709Z" fill="#002544"/>
<path opacity="0.25" d="M185.292 184.652L176.665 218.408C176.665 218.516 176.557 218.623 176.557 218.623C173.214 227.574 169.978 238.79 168.037 251.948L104.192 240.624L153.046 156.289C154.341 158.553 155.742 160.71 157.252 162.867C160.596 167.397 163.723 169.661 167.39 171.818C167.606 171.926 167.929 172.142 168.145 172.25C168.792 172.681 169.439 173.005 170.086 173.436C170.41 173.652 170.625 173.76 170.949 173.975C174.831 176.132 179.469 179.044 185.292 184.652Z" fill="url(#paint1_linear_328_1553)"/>
<path opacity="0.64" d="M155.095 159.631C152.183 163.19 146.251 168.798 137.408 170.632C136.977 170.416 136.437 170.2 135.898 170.2C135.035 170.2 134.28 170.524 133.741 171.171C133.31 171.171 132.878 171.279 132.447 171.279C132.123 171.279 131.8 171.279 131.584 171.279C121.339 171.279 111.741 165.886 106.025 157.259L106.78 156.504C112.496 165.239 122.31 170.524 132.447 170.2C143.986 169.877 151.428 162.651 154.663 158.661C154.663 158.984 154.879 159.308 155.095 159.631Z" fill="white"/>
<path opacity="0.64" d="M137.409 170.632C136.977 170.416 136.438 170.2 135.899 170.2C135.036 170.2 134.281 170.524 133.742 171.171C133.203 171.71 132.879 172.465 132.879 173.328C132.879 175.053 134.281 176.347 135.899 176.347C137.517 176.347 138.919 174.945 138.919 173.328C138.919 172.141 138.272 171.171 137.409 170.632Z" fill="white"/>
<path d="M159.299 71.307C155.956 71.954 147.436 73.2482 137.838 69.2579C124.897 63.7578 119.72 52.434 118.642 49.8457C118.534 49.8457 118.426 49.9536 118.426 49.9536C116.592 58.042 114.975 66.4539 113.465 75.2973C111.092 89.3172 109.475 102.582 108.396 115.092C114.004 123.073 121.338 128.681 128.563 131.7C130.612 132.563 141.289 135.799 149.054 132.348C161.995 126.74 168.682 101.504 159.299 71.307Z" fill="#E6A67F"/>
<path d="M133.308 88.6698C134.738 88.6698 135.896 87.511 135.896 86.0815C135.896 84.652 134.738 83.4932 133.308 83.4932C131.879 83.4932 130.72 84.652 130.72 86.0815C130.72 87.511 131.879 88.6698 133.308 88.6698Z" fill="black"/>
<path d="M156.709 85.5423C158.139 85.5423 159.298 84.3835 159.298 82.954C159.298 81.5245 158.139 80.3657 156.709 80.3657C155.28 80.3657 154.121 81.5245 154.121 82.954C154.121 84.3835 155.28 85.5423 156.709 85.5423Z" fill="black"/>
<path d="M146.035 84.5713C147.113 87.8067 148.947 91.797 152.182 95.7873C154.662 98.8069 156.711 100.317 156.28 101.934C155.956 103.336 153.584 104.631 146.035 104.954C146.035 98.1599 146.035 91.3656 146.035 84.5713Z" fill="#C5856E"/>
<path d="M144.309 116.386C142.691 116.386 140.642 116.062 138.593 115.2C133.848 113.043 131.906 108.945 131.367 107.327C131.259 107.003 131.367 106.572 131.798 106.464C132.122 106.356 132.553 106.464 132.661 106.896C133.093 108.082 134.818 111.964 139.24 114.013C143.014 115.739 146.681 114.984 147.975 114.66C148.299 114.553 148.73 114.768 148.73 115.092C148.838 115.415 148.622 115.847 148.299 115.847C147.544 116.062 146.142 116.386 144.309 116.386Z" fill="black"/>
<path d="M134.925 70.6597C132.984 71.1989 130.935 71.6303 128.994 72.1695C126.729 72.7087 124.357 73.3558 122.092 73.895C122.739 73.1401 124.896 70.8754 128.563 70.1205C131.474 69.5812 133.847 70.2283 134.925 70.6597Z" fill="black"/>
<path d="M162.964 76.9143C161.023 76.4829 158.974 75.9437 157.033 75.5123C154.768 74.9731 152.395 74.4339 150.131 73.7868C151.101 73.4632 154.013 72.4926 157.572 73.4633C160.484 74.326 162.209 76.0516 162.964 76.9143Z" fill="black"/>
<path d="M170.191 311.262C170.191 311.37 170.191 311.478 170.299 311.586C169.328 312.664 165.446 316.87 159.191 321.076C158.975 321.292 158.759 321.4 158.436 321.615C155.847 323.341 152.935 324.959 149.7 326.469C148.298 327.116 146.896 327.655 145.386 328.194C139.239 330.351 132.121 331.753 124.033 331.429C122.631 331.322 121.229 331.214 119.935 330.998C118.856 330.89 117.886 330.675 116.807 330.567C112.062 329.704 107.748 328.194 103.974 326.576C103.327 326.253 102.679 325.929 102.032 325.606C95.8852 322.586 91.4635 319.135 88.9831 316.978C88.4439 316.547 88.1203 316.223 87.7968 315.9C87.7968 315.9 87.7968 315.9 87.7968 315.792C87.7968 315.684 87.9046 315.684 87.9046 315.576C88.2282 314.39 88.5517 313.311 88.8752 312.233C89.0909 311.37 89.3066 310.507 89.5223 309.752C91.4635 301.988 92.542 294.978 93.0812 288.723C93.189 287.105 93.2969 285.487 93.4048 283.87C93.4048 283.438 93.4048 283.115 93.4048 282.683C93.5126 281.066 93.5126 279.556 93.4048 278.046C93.2969 269.742 92.1106 263.379 90.9243 258.742C90.9243 258.634 90.9243 258.634 90.9243 258.526C90.9243 258.526 90.9243 258.526 90.9243 258.418V258.31C90.8164 257.987 90.7086 257.663 90.6008 257.232C90.4929 257.016 90.4929 256.692 90.3851 256.369C90.2772 255.938 90.1694 255.614 90.0615 255.183C90.0615 254.967 89.9537 254.859 89.9537 254.643C89.8458 254.428 89.8459 254.104 89.738 253.889C89.6302 253.565 89.5223 253.134 89.4145 252.81C89.4145 252.702 89.4145 252.702 89.3066 252.594C89.1988 252.163 89.0909 251.732 88.8752 251.3C88.7674 250.977 88.6596 250.653 88.5517 250.222C88.1203 248.928 87.6889 247.741 87.2575 246.339C87.2575 246.231 87.2575 246.231 87.1497 246.124C86.934 245.584 86.8262 245.045 86.6105 244.614C86.6105 244.506 86.6105 244.506 86.5026 244.398L86.2869 243.859V243.751C85.6399 242.026 85.1006 240.192 84.4536 238.251C84.13 237.388 83.9143 236.633 83.5908 235.77C82.1888 231.564 80.5711 227.358 79.0613 223.153L79.1691 223.045C80.5711 221.966 81.8653 220.996 83.2673 220.025C83.9144 219.486 84.5614 219.054 85.3163 218.623C86.0713 218.192 86.6105 217.652 87.3654 217.221C87.5811 217.005 87.9046 216.897 88.1203 216.682C88.4439 216.466 88.6595 216.25 88.9831 216.143C89.8458 215.603 90.6008 215.064 91.3557 214.525C91.7871 214.201 92.3263 213.878 92.7577 213.662C92.9734 213.554 93.0812 213.446 93.2969 213.339C93.8361 213.015 94.4832 212.584 95.0224 212.26C95.6695 211.829 96.3166 211.505 96.8558 211.182C97.9343 210.535 99.0127 209.995 100.091 209.456C100.523 209.24 101.062 208.917 101.493 208.701C101.601 208.701 101.601 208.593 101.709 208.593H101.817C102.032 208.486 102.14 208.378 102.356 208.378C102.895 208.162 103.327 207.838 103.866 207.623C103.974 207.515 104.081 207.515 104.297 207.407C104.621 207.191 105.052 207.084 105.376 206.868C105.699 206.652 106.131 206.544 106.454 206.329C107.209 206.005 107.856 205.682 108.611 205.358C109.258 205.034 110.013 204.819 110.66 204.495C110.984 204.387 111.307 204.28 111.523 204.172C111.954 204.064 112.278 203.848 112.709 203.74C113.14 203.525 113.68 203.417 114.111 203.201C114.65 202.985 115.19 202.878 115.729 202.662C115.944 202.554 116.268 202.446 116.484 202.446C116.699 202.338 117.023 202.338 117.239 202.231C117.886 202.015 118.533 201.907 119.072 201.691C119.719 201.476 120.366 201.368 120.905 201.152C121.229 201.044 121.66 200.936 121.984 200.936C122.631 200.721 123.278 200.613 124.033 200.505C124.356 200.397 124.788 200.397 125.111 200.289C125.543 200.181 125.866 200.181 126.298 200.074C126.513 200.074 126.837 199.966 127.053 199.966C127.268 199.966 127.592 199.858 127.807 199.858C128.023 199.858 128.347 199.75 128.562 199.75C128.778 199.75 129.102 199.642 129.317 199.642C129.857 199.534 130.288 199.534 130.827 199.427C131.366 199.427 131.798 199.319 132.229 199.319C132.445 199.319 132.768 199.319 132.984 199.319C133.2 199.319 133.308 199.319 133.523 199.319H133.631C137.729 199.103 141.612 199.319 145.171 199.966C145.602 200.074 146.033 200.074 146.357 200.181C146.68 200.289 147.112 200.289 147.435 200.397C147.543 200.397 147.543 200.397 147.651 200.397C147.975 200.505 148.298 200.505 148.622 200.613C149.053 200.721 149.484 200.829 149.808 200.936C149.916 200.936 149.916 200.936 150.024 200.936C150.455 201.044 150.886 201.152 151.21 201.26C151.641 201.368 152.181 201.583 152.612 201.691C152.935 201.799 153.259 201.907 153.583 202.015C153.798 202.123 154.014 202.123 154.122 202.231C154.122 202.231 154.122 202.231 154.23 202.231C154.445 202.338 154.553 202.338 154.769 202.446C154.985 202.554 155.2 202.554 155.308 202.662C155.847 202.878 156.387 203.093 156.926 203.309C157.465 203.525 158.004 203.848 158.543 204.064C158.759 204.172 159.083 204.28 159.298 204.495C159.514 204.603 159.838 204.711 160.053 204.927C160.269 205.035 160.485 205.142 160.808 205.358C161.24 205.574 161.779 205.897 162.21 206.221C162.426 206.329 162.642 206.544 162.857 206.652C162.965 206.76 163.073 206.76 163.181 206.868C163.72 207.191 164.259 207.515 164.798 207.946C165.014 208.162 165.338 208.27 165.553 208.486C166.524 209.133 167.387 209.888 168.25 210.535C168.573 210.858 168.897 211.074 169.22 211.397C169.544 211.721 169.867 211.937 170.191 212.26C170.514 212.584 170.73 212.799 171.054 213.123C171.161 213.231 171.377 213.339 171.485 213.554C171.593 213.662 171.701 213.77 171.916 213.986C172.132 214.201 172.456 214.525 172.671 214.741C172.887 214.956 173.103 215.28 173.318 215.496C173.426 215.603 173.534 215.711 173.642 215.819C173.75 215.927 173.858 216.035 173.965 216.143C174.073 216.25 174.181 216.358 174.289 216.466C174.505 216.682 174.612 216.898 174.828 217.113C175.044 217.329 175.152 217.545 175.367 217.76C175.475 217.868 175.583 217.976 175.691 218.084C176.014 218.515 176.338 218.947 176.554 219.27L176.662 219.378C173.103 229.084 169.544 241.486 167.71 256.153C166.955 262.408 166.524 268.448 166.416 274.163C166.416 275.458 166.416 276.86 166.416 278.154C166.416 279.771 166.416 281.281 166.524 282.791C166.524 282.899 166.524 282.899 166.524 283.007C166.524 283.762 166.632 284.624 166.632 285.379C166.632 286.134 166.74 286.997 166.74 287.752C166.848 290.017 167.063 292.282 167.279 294.438C167.387 295.193 167.495 295.948 167.495 296.595C167.602 297.242 167.602 297.89 167.71 298.537C167.818 299.076 167.926 299.723 167.926 300.262C168.034 300.801 168.142 301.448 168.142 301.988C168.357 303.174 168.465 304.252 168.681 305.331C168.789 305.87 168.897 306.409 169.004 306.949C169.112 307.38 169.112 307.811 169.22 308.135C169.328 308.674 169.436 309.321 169.544 309.86C169.544 309.968 169.544 310.076 169.652 310.184C169.759 310.615 169.867 311.047 169.867 311.478C170.191 311.047 170.191 311.154 170.191 311.262Z" fill="#8677A7"/>
<path d="M91.3569 214.417C91.2491 215.603 90.1706 216.681 88.7686 216.681C88.5529 216.681 88.3372 216.681 88.0137 216.573C88.3372 216.358 88.5529 216.142 88.8764 216.034C89.7392 215.387 90.4941 214.848 91.3569 214.417Z" fill="#004E5A"/>
<path d="M88.7671 230.917C90.1965 230.917 91.3554 229.855 91.3554 228.544C91.3554 227.234 90.1965 226.172 88.7671 226.172C87.3376 226.172 86.1788 227.234 86.1788 228.544C86.1788 229.855 87.3376 230.917 88.7671 230.917Z" fill="#87AEB4"/>
<path d="M104.083 211.829C105.512 211.829 106.671 210.766 106.671 209.456C106.671 208.146 105.512 207.083 104.083 207.083C102.653 207.083 101.494 208.146 101.494 209.456C101.494 210.766 102.653 211.829 104.083 211.829Z" fill="#87AEB4"/>
<path d="M104.083 226.172C105.512 226.172 106.671 225.11 106.671 223.8C106.671 222.49 105.512 221.427 104.083 221.427C102.653 221.427 101.494 222.49 101.494 223.8C101.494 225.11 102.653 226.172 104.083 226.172Z" fill="#004E5A"/>
<path d="M104.083 240.516C105.512 240.516 106.671 239.454 106.671 238.144C106.671 236.833 105.512 235.771 104.083 235.771C102.653 235.771 101.494 236.833 101.494 238.144C101.494 239.454 102.653 240.516 104.083 240.516Z" fill="#87AEB4"/>
<path d="M121.121 200.829C120.689 201.691 119.827 202.231 118.748 202.231C118.209 202.231 117.778 202.123 117.346 201.799C117.993 201.584 118.64 201.476 119.18 201.26C119.827 201.152 120.474 201.044 121.121 200.829Z" fill="#87AEB4"/>
<path d="M118.75 216.573C120.179 216.573 121.338 215.511 121.338 214.201C121.338 212.89 120.179 211.828 118.75 211.828C117.32 211.828 116.161 212.89 116.161 214.201C116.161 215.511 117.32 216.573 118.75 216.573Z" fill="#004E5A"/>
<path d="M118.75 230.917C120.179 230.917 121.338 229.855 121.338 228.544C121.338 227.234 120.179 226.172 118.75 226.172C117.32 226.172 116.161 227.234 116.161 228.544C116.161 229.855 117.32 230.917 118.75 230.917Z" fill="#87AEB4"/>
<path d="M133.416 211.181C134.845 211.181 136.004 210.119 136.004 208.809C136.004 207.498 134.845 206.436 133.416 206.436C131.986 206.436 130.827 207.498 130.827 208.809C130.827 210.119 131.986 211.181 133.416 211.181Z" fill="#87AEB4"/>
<path d="M133.416 225.525C134.845 225.525 136.004 224.463 136.004 223.152C136.004 221.842 134.845 220.78 133.416 220.78C131.986 220.78 130.827 221.842 130.827 223.152C130.827 224.463 131.986 225.525 133.416 225.525Z" fill="#004E5A"/>
<path d="M133.416 239.869C134.845 239.869 136.004 238.806 136.004 237.496C136.004 236.186 134.845 235.124 133.416 235.124C131.986 235.124 130.827 236.186 130.827 237.496C130.827 238.806 131.986 239.869 133.416 239.869Z" fill="#87AEB4"/>
<path d="M150.132 200.505C149.701 201.152 148.946 201.584 147.975 201.584C146.681 201.584 145.602 200.613 145.387 199.427C145.818 199.535 146.249 199.535 146.573 199.642C146.897 199.75 147.328 199.75 147.651 199.858C147.759 199.858 147.759 199.858 147.867 199.858C148.191 199.966 148.514 199.966 148.838 200.074C149.377 200.29 149.701 200.397 150.132 200.505Z" fill="#87AEB4"/>
<path d="M147.975 215.927C149.404 215.927 150.563 214.865 150.563 213.555C150.563 212.244 149.404 211.182 147.975 211.182C146.546 211.182 145.387 212.244 145.387 213.555C145.387 214.865 146.546 215.927 147.975 215.927Z" fill="#004E5A"/>
<path d="M147.975 230.271C149.404 230.271 150.563 229.209 150.563 227.899C150.563 226.588 149.404 225.526 147.975 225.526C146.546 225.526 145.387 226.588 145.387 227.899C145.387 229.209 146.546 230.271 147.975 230.271Z" fill="#87AEB4"/>
<path d="M147.975 244.613C149.404 244.613 150.563 243.551 150.563 242.241C150.563 240.93 149.404 239.868 147.975 239.868C146.546 239.868 145.387 240.93 145.387 242.241C145.387 243.551 146.546 244.613 147.975 244.613Z" fill="#004E5A"/>
<path d="M163.397 211.181C164.827 211.181 165.985 210.119 165.985 208.809C165.985 207.498 164.827 206.436 163.397 206.436C161.968 206.436 160.809 207.498 160.809 208.809C160.809 210.119 161.968 211.181 163.397 211.181Z" fill="#87AEB4"/>
<path d="M163.397 225.525C164.827 225.525 165.985 224.463 165.985 223.152C165.985 221.842 164.827 220.78 163.397 220.78C161.968 220.78 160.809 221.842 160.809 223.152C160.809 224.463 161.968 225.525 163.397 225.525Z" fill="#004E5A"/>
<path d="M163.397 239.869C164.827 239.869 165.985 238.806 165.985 237.496C165.985 236.186 164.827 235.124 163.397 235.124C161.968 235.124 160.809 236.186 160.809 237.496C160.809 238.806 161.968 239.869 163.397 239.869Z" fill="#87AEB4"/>
<path d="M112.817 214.201C112.709 214.309 112.494 214.309 112.386 214.309C111.739 214.417 111.092 214.094 110.768 213.447L88.2285 169.877C89.1991 169.338 90.0619 168.799 90.8168 168.259L113.357 211.829C113.788 212.799 113.572 213.77 112.817 214.201Z" fill="#8677A7"/>
<path d="M170.191 173.437L159.514 215.712C159.083 215.388 158.759 215.065 158.328 214.741C158.112 214.526 157.896 214.31 157.573 214.094C157.357 213.879 157.141 213.663 156.818 213.555L167.387 171.819L170.191 173.437Z" fill="#8677A7"/>
<path opacity="0.42" d="M170.193 311.263C170.193 311.371 170.193 311.479 170.301 311.587C169.33 312.773 165.448 316.871 159.193 321.077L133.741 323.234C137.623 306.626 141.074 284.733 140.859 258.958C140.643 235.124 137.408 214.634 133.741 198.78C138.486 198.457 146.467 198.672 155.202 202.123C167.928 207.192 174.83 216.143 176.556 218.624L176.663 218.732C173.105 228.438 169.546 240.84 167.712 255.507C166.957 261.762 166.526 267.801 166.418 273.517C166.418 274.811 166.418 276.213 166.418 277.507C166.526 290.772 168.252 302.096 170.085 310.832C170.193 311.047 170.193 311.155 170.193 311.263Z" fill="url(#paint2_linear_328_1553)"/>
<path d="M106.242 308.997L67.3098 311.586L59.3292 312.125L66.4471 231.564C57.4959 239.653 15.8675 276.428 -7.85852 272.653C-10.1233 272.33 -12.2802 271.575 -14.2214 270.389C-21.9863 265.535 -22.6334 255.614 -34.6042 195.867C-35.6827 190.583 -36.6533 185.622 -37.6239 181.092C-37.9474 179.367 -38.271 177.749 -38.5945 176.132C-39.7808 170.2 -40.8593 165.239 -41.722 161.357V161.249C-41.5064 161.033 -35.8984 158.661 -32.5552 157.151C-32.0159 156.935 -31.5846 156.719 -31.261 156.504C-31.0453 156.396 -30.8296 156.288 -30.7218 156.18C-30.6139 156.288 -30.6139 156.396 -30.5061 156.504C-30.3982 156.719 -30.2904 156.827 -30.1826 157.043C-27.3786 161.141 -23.9275 166.641 -20.3686 173.435C-2.25056 208.485 -6.56439 231.996 3.14171 234.692C11.4458 236.956 18.7793 220.888 42.9367 197.916C57.1723 184.436 70.653 174.837 80.6826 168.367C89.2024 215.172 97.7223 262.084 106.242 308.997Z" fill="#BDD3DE"/>
<path d="M299.069 162.111C297.451 169.768 294.97 181.954 291.951 196.837C287.313 220.024 284.294 235.769 282.029 246.554C278.47 262.946 276.421 268.015 271.999 271.035C271.891 271.143 271.676 271.251 271.568 271.358C259.813 278.692 239.969 269.201 222.714 257.662C208.155 247.956 195.429 236.632 190.899 232.534C193.272 243.426 195.645 254.319 198.017 265.211C196.076 265.966 194.027 266.721 191.978 267.584C188.311 269.094 184.537 270.711 180.654 272.329C173.86 275.349 167.389 278.368 161.242 281.496C161.565 264.672 162.644 246.338 164.801 226.602C167.173 205.357 170.624 185.837 174.507 168.258C185.076 174.944 199.204 184.974 214.302 198.886C238.136 220.887 246.44 236.093 254.097 233.612C264.127 230.269 256.47 201.69 274.911 171.493C275.774 170.091 276.637 168.689 277.607 167.287C279.549 164.483 281.382 162.111 283 160.277C284.078 158.983 285.049 157.905 285.804 157.15C286.558 157.473 287.421 157.797 288.176 158.121C291.735 159.522 295.294 160.817 298.853 162.219C298.961 162.003 299.069 162.003 299.069 162.111Z" fill="#BDD3DE"/>
<path opacity="0.36" d="M78.7415 257.016C78.7415 268.556 71.9472 295.193 67.4177 311.586L59.4371 312.125L66.5549 231.565C57.6038 239.653 15.9753 276.428 -7.75067 272.654C5.83787 257.232 33.3385 230.594 53.2899 225.525C80.7905 218.192 78.7415 239.653 78.7415 257.016Z" fill="url(#paint3_linear_328_1553)"/>
<path opacity="0.36" d="M272.001 270.927C271.893 271.035 271.678 271.143 271.57 271.251C259.815 278.584 239.971 269.094 222.716 257.554C208.157 247.848 195.431 236.525 190.901 232.426C193.274 243.319 195.647 254.211 198.019 265.104C196.078 265.859 194.029 266.614 191.98 267.476C186.156 257.662 174.401 235.23 180.656 224.338C187.774 212.044 253.775 257.986 272.001 270.927Z" fill="url(#paint4_linear_328_1553)"/>
</g>
<defs>
<linearGradient id="paint0_linear_328_1553" x1="14.4247" y1="214.619" x2="142.583" y2="214.619" gradientUnits="userSpaceOnUse">
<stop stop-color="#153E5C"/>
<stop offset="1" stop-color="#271C41"/>
</linearGradient>
<linearGradient id="paint1_linear_328_1553" x1="167.002" y1="151.555" x2="141.212" y2="230.859" gradientUnits="userSpaceOnUse">
<stop offset="0.1545" stop-color="#691B26"/>
<stop offset="0.5166" stop-color="#CD907F" stop-opacity="0.5"/>
</linearGradient>
<linearGradient id="paint2_linear_328_1553" x1="133.805" y1="261.026" x2="176.712" y2="261.026" gradientUnits="userSpaceOnUse">
<stop stop-color="#9776A6"/>
<stop offset="1" stop-color="#271C41"/>
</linearGradient>
<linearGradient id="paint3_linear_328_1553" x1="-7.80999" y1="267.997" x2="78.741" y2="267.997" gradientUnits="userSpaceOnUse">
<stop stop-color="#153E5C"/>
<stop offset="0.9956" stop-color="#AAC0DC"/>
</linearGradient>
<linearGradient id="paint4_linear_328_1553" x1="178.959" y1="248.03" x2="272.006" y2="248.03" gradientUnits="userSpaceOnUse">
<stop stop-color="#153E5C"/>
<stop offset="0.9956" stop-color="#AAC0DC"/>
</linearGradient>
<clipPath id="clip0_328_1553">
<rect width="240" height="240" rx="120" fill="white"/>
</clipPath>
</defs>
</svg>
