<svg width="240" height="240" viewBox="0 0 240 240" fill="none" xmlns="http://www.w3.org/2000/svg">
<g clip-path="url(#clip0_328_1823)">
<rect width="240" height="240" rx="120" fill="#CCAAAA"/>
<path d="M259.35 287.057C245.187 288.597 230.92 290.033 216.654 291.06C213.781 291.265 211.01 291.47 208.136 291.675C208.033 315.076 207.931 338.374 207.828 361.774C181.143 361.466 154.459 360.234 127.774 359.105C102.013 357.976 76.1499 356.847 50.389 356.95C38.5862 356.95 26.886 357.053 15.0832 356.847C14.9806 344.224 14.8779 331.6 14.8779 319.079C10.5673 319.797 6.15413 318.976 2.45934 316C2.15144 311.381 2.04878 306.763 2.04878 302.247C1.84352 289.11 1.84357 275.87 1.84357 262.63C1.6383 233.585 2.25406 204.54 5.33305 175.7C7.18045 177.753 9.02787 179.703 10.8753 181.756C20.5228 166.463 32.4282 152.505 50.0811 146.552C61.4734 142.755 73.7893 143.268 85.4895 144.5C88.158 144.808 90.929 145.116 93.5975 145.423C104.374 146.655 115.253 148.195 125.927 149.734C136.088 151.171 146.248 152.813 156.409 154.558C172.933 157.329 189.354 160.408 205.673 163.897C211.625 165.129 232.152 170.876 239.542 184.013L239.644 184.116C243.955 191.814 246.623 200.332 248.471 209.159C251.858 225.067 253.808 241.385 255.963 257.601C257.195 267.351 258.324 277.204 259.35 287.057Z" fill="#BCD7FD"/>
<path d="M156.41 154.456C150.457 168.003 139.886 178.985 123.773 180.319C104.375 181.961 86.9273 163.59 93.5984 145.321C104.375 146.553 115.254 148.092 125.928 149.632C136.089 151.171 146.249 152.814 156.41 154.456Z" fill="#CD8F7E"/>
<path d="M177.039 225.682C177.039 224.861 175.602 224.861 175.705 225.682C176.731 244.874 177.655 264.066 178.681 283.361C178.476 283.464 178.373 283.772 178.373 284.08C178.476 284.593 178.681 285.106 178.784 285.619C178.989 286.338 180.118 286.235 180.118 285.414C179.092 265.503 178.065 245.593 177.039 225.682Z" fill="white"/>
<path d="M28.426 176.727C27.5023 183.296 26.5786 189.864 25.6549 196.433C25.5523 197.254 26.7839 197.664 26.9892 196.741C27.9129 190.172 28.8366 183.604 29.7603 177.035C29.8629 176.214 28.5287 175.906 28.426 176.727Z" fill="white"/>
<path d="M10.7745 181.755C-13.9601 154.044 -41.8762 129.309 -72.4609 107.962C-76.1557 103.549 -81.1847 100.777 -87.3427 103.856C-87.8558 104.164 -92.7822 109.604 -93.5007 111.657C-99.1455 120.483 -124.291 143.062 -123.675 145.628C-122.751 149.631 -109.717 152.402 -110.64 147.373C-109.922 146.141 -109.511 145.32 -108.793 144.191C-108.075 143.883 -107.459 143.575 -106.843 143.268C-106.022 150.76 -99.9665 156.405 -92.269 156.405C-88.5743 166.668 -80.0557 174.16 -69.5872 176.829C-41.671 235.021 -1.02827 311.073 1.33229 314.973C3.89812 319.181 9.44027 328.418 15.0851 326.775C16.3167 287.775 20.5246 240.461 24.8352 201.666C20.5246 194.379 11.0824 181.139 10.7745 181.755Z" fill="#CD8F7E"/>
<path d="M149.532 163.692L98.523 158.971L97.9073 144.705L97.1888 126.334L95.8546 94.7227H134.137C134.137 98.5201 149.532 163.692 149.532 163.692Z" fill="#CD8F7E"/>
<path d="M143.58 66.3949C135.472 49.2552 89.185 47.8183 85.4902 65.9844C82.7191 79.7372 83.5402 89.0768 80.1533 99.7506C77.3822 108.577 75.1242 117.609 80.5638 125.922C91.5455 142.549 114.535 137.622 126.03 124.588C137.525 111.451 151.586 83.3294 143.58 66.3949Z" fill="#CD8F7E"/>
<path d="M143.58 66.3954C138.448 55.4136 117.613 50.8978 102.321 53.7715C101.911 53.5663 101.5 53.2583 100.987 53.1557C98.5238 52.232 95.2395 52.5399 93.4948 54.2847C90.2105 53.0531 86.2078 54.0794 84.3604 57.4663C81.7946 62.0848 85.1814 67.0112 85.1814 67.3191C90.3131 69.9875 97.9079 70.8086 102.834 71.6297C110.532 73.0665 119.769 73.785 125.824 73.2718C126.645 78.6087 126.132 92.4642 121.616 97.6984C115.253 105.088 87.0289 100.47 81.3841 94.7221C81.0762 96.3642 80.563 98.0064 80.0498 99.6485C77.2787 108.475 75.0208 117.507 80.4603 125.82C91.4421 142.446 114.432 137.52 125.927 124.486C137.524 111.451 151.585 83.3298 143.58 66.3954Z" fill="black"/>
<path d="M98.6285 98.0069C97.1916 98.1095 95.5494 98.2122 94.1126 97.699C92.4704 97.0832 90.9309 95.1332 92.3678 93.4911C92.881 92.8753 91.9573 91.8489 91.4441 92.5674C90.1099 94.1069 90.3152 96.2622 91.752 97.699C93.5994 99.5464 96.2679 99.5464 98.7311 99.3411C99.4495 99.2385 99.4495 97.9043 98.6285 98.0069Z" fill="black"/>
<path d="M111.457 108.988C111.355 108.167 110.02 108.167 110.123 108.988C110.431 112.375 107.865 115.146 104.478 115.043C103.657 115.043 103.657 116.377 104.478 116.377C108.583 116.48 111.868 113.093 111.457 108.988Z" fill="white"/>
<path d="M94.5215 84.1504C94.0084 89.59 88.8767 93.6953 83.4372 92.2584C77.895 90.8216 75.5344 84.7662 77.6897 79.7372C77.9976 78.9161 76.8687 78.3003 76.5608 79.0188C73.9949 84.8689 76.6634 91.8479 83.0266 93.49C89.4925 95.2348 95.24 90.4111 95.8558 84.0478C95.9584 83.3294 94.6242 83.3294 94.5215 84.1504Z" fill="#BCD7FD"/>
<path d="M121.103 86.7165C121.411 92.2587 116.998 96.9798 111.353 96.364C105.708 95.7482 102.424 90.1034 103.861 84.7665C104.066 83.9454 102.834 83.4323 102.629 84.2533C100.987 90.4113 104.579 96.8772 111.148 97.5956C117.716 98.314 122.745 92.7719 122.437 86.4086C122.437 85.6902 121.103 85.7928 121.103 86.7165Z" fill="#BCD7FD"/>
<path d="M103.142 86.2036C100.268 85.9983 97.4974 85.8957 94.7263 85.6904C93.9053 85.6904 93.9053 87.0247 94.7263 87.0247C97.4974 87.2299 100.268 87.3326 103.142 87.5378C103.142 87.0247 103.142 86.6141 103.142 86.2036Z" fill="#BCD7FD"/>
<path d="M110.736 85.383C110.633 86.6146 110.428 87.8462 110.325 89.0778C110.223 90.3094 112.173 90.3094 112.275 89.0778C112.378 87.8462 112.583 86.6146 112.686 85.383C112.788 84.0488 110.838 84.0488 110.736 85.383Z" fill="black"/>
<path d="M86.1053 80.4553C86.0026 81.6869 85.7973 82.9184 85.6947 84.15C85.5921 85.3816 87.5421 85.3816 87.6447 84.15C87.7474 82.9184 87.9527 81.6869 88.0553 80.4553C88.2606 79.121 86.3105 79.121 86.1053 80.4553Z" fill="black"/>
<path d="M154.87 92.4644C153.125 85.9986 143.785 81.688 136.293 86.8196C135.472 94.0039 134.446 101.188 133.317 108.373C136.909 110.528 144.709 111.349 149.43 108.167C154.87 104.575 156.614 99.3408 154.87 92.4644Z" fill="#CD8F7E"/>
<path d="M144.093 94.6202C142.143 96.4676 140.193 98.2123 138.346 100.06C137.73 100.676 138.654 101.497 139.27 100.983C139.372 100.881 139.577 100.778 139.68 100.676C139.783 100.676 139.783 100.573 139.783 100.573C141.527 98.9308 143.272 97.2886 145.017 95.6465C145.735 95.0307 144.709 94.107 144.093 94.6202Z" fill="black"/>
<path d="M90.8249 75.8377C89.4907 75.3245 88.1565 74.8114 86.8223 74.2982C86.1039 73.9903 85.3854 74.6061 85.1801 75.2219C84.9749 75.9403 85.488 76.6588 86.1038 76.864C87.4381 77.3772 88.7723 77.8904 90.1066 78.4035C90.825 78.7114 91.5434 78.0956 91.7487 77.4798C91.9539 76.6588 91.5434 76.043 90.8249 75.8377Z" fill="black"/>
<path d="M112.38 74.7086C111.046 74.606 109.712 74.606 108.378 74.5034C106.633 74.4007 106.633 77.0692 108.378 77.1718C109.712 77.2745 111.046 77.2745 112.38 77.3771C114.125 77.4797 114.125 74.7086 112.38 74.7086Z" fill="black"/>
</g>
<defs>
<clipPath id="clip0_328_1823">
<rect width="240" height="240" rx="120" fill="white"/>
</clipPath>
</defs>
</svg>
