<svg width="72" height="72" viewBox="0 0 72 72" fill="none" xmlns="http://www.w3.org/2000/svg">
<rect width="72" height="72" rx="36" fill="#E4E4E4"/>
<path d="M61.405 20.1398C59.4964 20.9841 57.4724 21.5385 55.4 21.7848C57.5844 20.4784 59.2193 18.4224 60 15.9998C57.95 17.2198 55.7025 18.0748 53.36 18.5373C51.7865 16.8538 49.7009 15.7372 47.4274 15.3613C45.1539 14.9853 42.8199 15.371 40.7882 16.4584C38.7565 17.5459 37.141 19.274 36.1928 21.3743C35.2446 23.4746 35.0169 25.8293 35.545 28.0723C31.3878 27.864 27.3208 26.7836 23.6082 24.9015C19.8956 23.0193 16.6203 20.3774 13.995 17.1473C13.0657 18.7434 12.5774 20.5579 12.58 22.4048C12.58 26.0298 14.425 29.2323 17.23 31.1073C15.57 31.0551 13.9466 30.6068 12.495 29.7998V29.9298C12.4955 32.3441 13.3309 34.6839 14.8596 36.5525C16.3883 38.4211 18.5162 39.7035 20.8825 40.1823C19.3415 40.5999 17.7258 40.6615 16.1575 40.3623C16.8247 42.4404 18.125 44.2578 19.8765 45.5601C21.628 46.8624 23.7428 47.5843 25.925 47.6248C23.7562 49.3281 21.273 50.5873 18.6172 51.3302C15.9615 52.0732 13.1853 52.2855 10.4475 51.9548C15.2268 55.0284 20.7903 56.6601 26.4725 56.6548C45.705 56.6548 56.2225 40.7223 56.2225 26.9048C56.2225 26.4548 56.21 25.9998 56.19 25.5548C58.2372 24.0752 60.004 22.2424 61.4075 20.1423L61.405 20.1398Z" fill="#003A2B"/>
</svg>
